<svg width="1920" height="145" viewBox="0 0 1920 145" fill="none" xmlns="http://www.w3.org/2000/svg">
<path fill-rule="evenodd" clip-rule="evenodd" d="M-7.04238e-06 64.4445L52.8 69.8149C107.2 75.1853 212.8 85.926 320 99.3519C427.2 112.778 532.8 128.889 640 112.778C747.2 96.6667 852.8 48.3334 960 45.6482C1067.2 42.963 1172.8 85.9259 1280 107.407C1387.2 128.889 1492.8 128.889 1600 131.574C1707.2 134.259 1812.8 139.629 1867.2 142.315L1920 145L1920 -4.17738e-06L1867.2 4.38544e-07C1812.8 5.19434e-06 1707.2 1.44262e-05 1600 2.37979e-05C1492.8 3.31696e-05 1387.2 4.24015e-05 1280 5.17732e-05C1172.8 6.11449e-05 1067.2 7.03768e-05 960 7.97485e-05C852.8 8.91202e-05 747.2 9.83521e-05 640 0.000107724C532.8 0.000117095 427.2 0.000126327 320 0.000135699C212.8 0.000145071 107.2 0.000154303 52.8 0.000159058L-1.26763e-05 0.000163674L-7.04238e-06 64.4445Z" fill="#06D6A0"/>
</svg>
